<?xml version="1.0" encoding="UTF-8"?>
<svg version="1.1" xmlns="http://www.w3.org/2000/svg" width="1104" height="1946">
<path d="M0 0 C38.28 0 76.56 0 116 0 C114.85007752 45.99689924 114.85007752 45.99689924 114.25976562 63.95654297 C114.19215243 66.04830534 114.12466765 68.14007186 114.05729675 70.23184204 C113.87888084 75.76001234 113.69867767 81.28812287 113.51803398 86.81622076 C113.32665919 92.68149481 113.13689763 98.54682112 112.94689941 104.41213989 C112.62853659 114.23296366 112.30903908 124.05374996 111.98876953 133.87451172 C111.62102058 145.15146015 111.25487077 156.42845961 110.88961458 167.70548904 C110.53424219 178.67682385 110.17796595 189.64812911 109.82121277 200.6194191 C109.67107385 205.23670798 109.52119631 209.85400523 109.37153625 214.47130966 C107.88389359 260.34510424 107.88389359 260.34510424 107 282 C107.98462723 282.12256165 108.96925446 282.24512329 109.98371887 282.37139893 C193.38124812 292.79847971 276.40983225 310.15754539 352 348 C352.7852002 348.38865234 353.57040039 348.77730469 354.37939453 349.17773438 C373.56297721 358.72027115 391.3008589 370.61781159 408 384 C409.01320313 384.80050781 410.02640625 385.60101563 411.0703125 386.42578125 C427.09292999 399.27582918 442.39130351 413.76601826 455 430 C455.85346472 431.05370968 456.7090389 432.10571331 457.56640625 433.15625 C472.18465677 451.1966314 483.94263775 470.98922565 493.98193359 491.88525391 C494.66287644 493.2997208 495.35076326 494.71086491 496.04541016 496.11865234 C507.59789114 519.64091929 515.47348402 545.42916986 521 571 C521.32774414 572.50675293 521.32774414 572.50675293 521.66210938 574.04394531 C524.37744019 586.76459332 526.47810499 599.54426282 528.1875 612.4375 C528.34234863 613.58871338 528.49719727 614.73992676 528.65673828 615.92602539 C531.65545139 639.78357806 532.37650311 663.60716631 532.31805801 687.61791229 C532.31241377 689.97348601 532.30959583 692.32905251 532.30697632 694.68463135 C532.27051588 717.23792773 531.94921193 739.60709585 529 762 C528.82124925 763.39892069 528.64253944 764.79784662 528.46386719 766.19677734 C519.44403349 835.6953921 496.53586195 906.63946472 447.95703125 958.89453125 C446.18225856 960.80391744 444.49444992 962.75920568 442.8125 964.75 C434.91518391 973.78335692 426.3088776 982.31442795 416.86450195 989.71801758 C414.01221355 991.99027017 411.24481672 994.34190044 408.47265625 996.7109375 C402.3097415 1001.89526163 395.79267368 1006.45406436 389.0625 1010.875 C388.47740662 1011.26151733 387.89231323 1011.64803467 387.28948975 1012.04626465 C311.25459627 1062.20158734 220.43481914 1082.86958844 111.4375 1098.5 C110.14941437 1098.67798126 108.86132874 1098.85596252 107.53421021 1099.03933716 C103.87636448 1099.54192648 100.21774489 1100.03826282 96.55859375 1100.53125 C95.46179291 1100.6808165 94.36499207 1100.830383 93.23495483 1100.98448181 C92.22083527 1101.11915359 91.2067157 1101.25382538 90.16186523 1101.39257812 C89.28134995 1101.51056763 88.40083466 1101.62855713 87.49363708 1101.75012207 C84.97702572 1102.00230217 82.52730308 1102.0168376 80 1102 C80.00958488 1103.62435754 80.00958488 1103.62435754 80.0193634 1105.28153038 C80.06452616 1116.41949545 79.83322909 1127.52812209 79.44921875 1138.65869141 C79.38984961 1140.44456648 79.33074515 1142.23045037 79.2718811 1144.01634216 C79.11339625 1148.80240581 78.95127119 1153.58833963 78.78842545 1158.37425661 C78.61809688 1163.3989581 78.45120906 1168.42377393 78.28393555 1173.44857788 C77.96759075 1182.93599758 77.64821102 1192.42331252 77.32770443 1201.91059244 C76.96257188 1212.7233002 76.60087819 1223.53612217 76.23945427 1234.34895444 C75.49675985 1256.56609758 74.74980889 1278.7830959 74 1301 C75.14414871 1300.82164108 76.28829742 1300.64328217 77.46711731 1300.45951843 C90.38063716 1298.47117232 103.32020635 1296.7672341 116.28482628 1295.14939308 C119.94223122 1294.69228177 123.59908447 1294.23096354 127.2558136 1293.76847839 C137.64118524 1292.45510567 148.02679835 1291.14379212 158.41430664 1289.84741211 C185.07182673 1286.51747997 211.68927909 1283.07977429 238.203125 1278.734375 C239.20049368 1278.57143763 240.19786236 1278.40850025 241.22545433 1278.24062538 C283.47714975 1271.29459065 329.2512386 1262.22434975 364.8984375 1237.1640625 C367.5450141 1235.31745868 370.21071268 1233.61924919 373 1232 C373.20507892 1238.46378365 372.45389672 1244.45581477 371.3125 1250.8125 C371.13243408 1251.82151367 370.95236816 1252.83052734 370.7668457 1253.87011719 C361.70042643 1303.08671528 337.5218758 1345.6286646 296.15087891 1374.54736328 C235.51016565 1415.50221503 158.59721691 1425.83312047 87.75 1436 C87.01166931 1436.10613617 86.27333862 1436.21227234 85.51263428 1436.32162476 C83.46209681 1436.61434738 81.41096221 1436.90223713 79.359375 1437.1875 C78.21952148 1437.34605469 77.07966797 1437.50460937 75.90527344 1437.66796875 C73 1438 73 1438 69 1438 C69.01597481 1439.74039441 69.01597481 1439.74039441 69.03227234 1441.5159483 C69.12636709 1456.84864194 68.66735741 1472.15449976 68.1545701 1487.47661889 C68.02935938 1491.24102962 67.90817874 1495.00557059 67.78646851 1498.77009583 C67.57588379 1505.26702989 67.36283762 1511.76387931 67.14804077 1518.26067543 C66.83749767 1527.65354682 66.53078927 1537.04654046 66.22496808 1546.43956663 C65.72849565 1561.68514088 65.2289917 1576.9306142 64.72753906 1592.17602539 C64.24090155 1606.97122034 63.75571803 1621.76646181 63.27246094 1636.56176758 C63.24259098 1637.47624502 63.21272103 1638.39072247 63.18194592 1639.33291135 C63.03208167 1643.9213212 62.8822457 1648.50973198 62.73242378 1653.09814322 C61.49266553 1691.06557289 60.2479696 1729.03283939 59 1767 C56.46383751 1764.46383751 56.70998414 1763.49391379 56.59773064 1759.97003651 C56.55891458 1758.89893566 56.52009853 1757.82783481 56.48010623 1756.72427636 C56.44702243 1755.53803082 56.41393863 1754.35178527 56.37985229 1753.1295929 C56.33730792 1751.87664985 56.29476355 1750.62370681 56.25092995 1749.3327958 C56.13271625 1745.84342893 56.02662554 1742.35378067 55.92243886 1738.86397064 C55.8080967 1735.10408382 55.68264082 1731.34456628 55.55853271 1727.58499146 C55.31688981 1720.21170384 55.08553406 1712.83812701 54.857504 1705.46440724 C54.59134725 1696.87160166 54.31469067 1688.27914395 54.03748395 1679.68668892 C53.54278529 1664.34271837 53.05708383 1648.99847633 52.57666016 1633.65405273 C52.11103746 1618.78277266 51.64006822 1603.911676 51.16259766 1589.04077148 C51.13325315 1588.12679635 51.10390864 1587.21282121 51.0736749 1586.27114985 C50.95569192 1582.59675021 50.8377009 1578.92235082 50.71969204 1575.247952 C50.26423832 1561.06189099 49.81269669 1546.87570508 49.36196991 1532.68949318 C49.22600177 1528.41003382 49.08989204 1524.13057907 48.95342779 1519.85113549 C48.66633707 1510.84650696 48.38066361 1501.84183753 48.09927569 1492.83702878 C47.98294383 1489.11470428 47.8659237 1485.39240541 47.74683762 1481.67016792 C47.61732288 1477.62058953 47.49157659 1473.57090248 47.36618042 1469.52119446 C47.32863518 1468.3639483 47.29108993 1467.20670213 47.25240695 1466.01438791 C46.9987616 1457.67290403 46.96171502 1449.34453762 47 1441 C45.92390724 1441.19593876 44.84781448 1441.39187752 43.73911285 1441.59375381 C34.99709188 1443.18283229 26.23656648 1444.60465114 17.453125 1445.9453125 C-55.07531925 1457.04035107 -127.40108622 1470.5593206 -193 1505 C-193.95737061 1505.50152588 -193.95737061 1505.50152588 -194.93408203 1506.01318359 C-215.45573459 1516.87940635 -234.40321781 1530.63328455 -251.32421875 1546.51171875 C-253.56621418 1548.59661085 -255.8467535 1550.59110206 -258.1875 1552.5625 C-262.88969231 1556.66728263 -266.94866434 1561.26093761 -271 1566 C-271.71349609 1566.82902832 -271.71349609 1566.82902832 -272.44140625 1567.67480469 C-285.87027872 1583.37902959 -297.5422184 1600.61963551 -307 1619 C-307.45584473 1619.88574707 -307.91168945 1620.77149414 -308.38134766 1621.68408203 C-321.17415287 1646.83553795 -329.99423521 1672.70863536 -337 1700 C-337.24008789 1700.93231445 -337.48017578 1701.86462891 -337.72753906 1702.82519531 C-338.85074449 1707.20921174 -339.94644223 1711.59862377 -341 1716 C-341.33 1716 -341.66 1716 -342 1716 C-342.80746864 1644.03591058 -334.33984484 1571.28321496 -302 1506 C-301.32517578 1504.63174072 -301.32517578 1504.63174072 -300.63671875 1503.23583984 C-290.72833568 1483.32270254 -279.05786705 1465.22729211 -265 1448 C-264.5162793 1447.39913574 -264.03255859 1446.79827148 -263.53417969 1446.17919922 C-251.3441235 1431.09840737 -237.43272533 1416.76048045 -222 1405 C-220.9996875 1404.18273438 -219.999375 1403.36546875 -218.96875 1402.5234375 C-203.16323166 1389.63448373 -185.81729919 1378.86240581 -168 1369 C-166.90051025 1368.3824585 -166.90051025 1368.3824585 -165.77880859 1367.75244141 C-131.81146781 1348.75630952 -94.41536688 1336.23733552 -57 1326 C-56.02441132 1325.73249939 -56.02441132 1325.73249939 -55.02911377 1325.45959473 C-37.37259963 1320.63934227 -19.56631712 1316.7754685 -1.625 1313.1875 C-0.6791806 1312.99832001 0.26663879 1312.80914001 1.24111938 1312.61422729 C10.82016303 1310.70792972 20.41064874 1308.87887965 30.0390625 1307.23828125 C30.77248871 1307.11124313 31.50591492 1306.98420502 32.26156616 1306.85331726 C35.87806066 1306.25266238 39.33271633 1305.85826275 43 1306 C42.84217828 1305.49352778 42.68435656 1304.98705557 42.52175236 1304.46523571 C41.82486605 1301.1725069 41.74952564 1297.90832585 41.65196228 1294.55622864 C41.62660654 1293.80370384 41.6012508 1293.05117905 41.57512671 1292.27585047 C41.49117972 1289.75278353 41.41345154 1287.22956353 41.33569336 1284.70629883 C41.27680252 1282.8976625 41.21753317 1281.08903846 41.15791321 1279.28042603 C40.99699695 1274.3650476 40.84149866 1269.44951102 40.68703151 1264.53392625 C40.52448221 1259.38773156 40.35723847 1254.24168936 40.19056702 1249.09562683 C39.91116292 1240.44787575 39.63502852 1231.80002528 39.36108398 1223.15209961 C39.00989508 1212.06624726 38.65335548 1200.98057385 38.2950964 1189.89494801 C37.98680454 1180.35410805 37.68099361 1170.8131888 37.37557149 1161.27225661 C37.27749278 1158.21168166 37.17907462 1155.15111776 37.08061028 1152.09055519 C36.92568468 1147.27010235 36.77231081 1142.44960243 36.62011528 1137.62906265 C36.56417031 1135.86384849 36.50774536 1134.09864947 36.45079422 1132.33346748 C35.92168915 1115.91425676 35.92168915 1115.91425676 36 1108 C-47.60214715 1118.14526047 -47.60214715 1118.14526047 -129 1139 C-130.19181885 1139.40001221 -130.19181885 1139.40001221 -131.40771484 1139.80810547 C-148.24284248 1145.55695932 -165.58797055 1153.71137705 -179.4765625 1164.93359375 C-181 1166 -181 1166 -183 1166 C-182.46005916 1157.68900008 -181.40081434 1149.61153809 -179.8125 1141.4375 C-179.59327881 1140.30852295 -179.37405762 1139.1795459 -179.14819336 1138.01635742 C-177.14288731 1128.07435006 -174.4427061 1118.53312942 -171 1109 C-170.77231934 1108.35595215 -170.54463867 1107.7119043 -170.31005859 1107.04833984 C-162.11800633 1084.17118736 -149.16444475 1064.92170686 -133 1047 C-132.32453125 1046.25105469 -131.6490625 1045.50210937 -130.953125 1044.73046875 C-124.94406044 1038.42608692 -117.9395625 1033.22682819 -111 1028 C-110.16597656 1027.3709375 -109.33195313 1026.741875 -108.47265625 1026.09375 C-74.08853368 1001.17260817 -32.6995334 988.72635187 8.125 979.0625 C9.36354736 978.76770752 10.60209473 978.47291504 11.87817383 978.16918945 C18.58671563 976.62417247 25.13462656 975.49607731 32 975 C31.90168176 973.96531397 31.90168176 973.96531397 31.8013773 972.90972519 C31.050309 964.54177959 30.69188225 956.18544022 30.42749023 947.79003906 C30.37833114 946.30012706 30.32891565 944.8102235 30.27926636 943.32032776 C30.14628836 939.30518217 30.01715225 935.28992194 29.8889606 931.27462101 C29.78082417 927.89867849 29.67077631 924.52279932 29.56074673 921.14691806 C29.30050781 913.1613469 29.04340189 905.17567916 28.78833008 897.18994141 C28.52723289 889.01710874 28.26112703 880.84445042 27.99244732 872.67186379 C27.76027902 865.60472952 27.53119762 858.53749959 27.30449444 851.4701879 C27.16980811 847.27210378 27.03408441 843.07406085 26.89541435 838.87610626 C26.29239838 820.57922109 25.82923383 802.30999787 26 784 C24.78194168 784.3124617 23.56388336 784.6249234 22.30891418 784.94685364 C19.23574151 785.71432408 16.19082746 786.3728369 13.05737305 786.8503418 C12.16854935 786.98805496 11.27972565 787.12576813 10.3639679 787.26765442 C9.42272568 787.41007065 8.48148346 787.55248688 7.51171875 787.69921875 C5.44052973 788.0202662 3.36940599 788.34173502 1.29833984 788.66357422 C-0.31902069 788.913461 -0.31902069 788.913461 -1.96905518 789.168396 C-45.95752128 795.99805525 -89.84882163 804.37466723 -132 819 C-133.52222168 819.51530273 -133.52222168 819.51530273 -135.07519531 820.04101562 C-172.26618555 832.64930299 -207.31402778 850.39414679 -238 875 C-238.55284668 875.43570313 -239.10569336 875.87140625 -239.67529297 876.3203125 C-254.46829056 888.01859844 -268.78527852 901.81382669 -280 917 C-280.48484863 917.64614258 -280.96969727 918.29228516 -281.46923828 918.95800781 C-309.95670607 957.00393931 -327.81997842 1000.56616917 -338.44970703 1046.70410156 C-339.20022319 1049.83535888 -340.0826172 1052.91387354 -341 1056 C-341.33 1056 -341.66 1056 -342 1056 C-342.79763348 984.91244992 -334.61809808 912.66590607 -303 848 C-302.57025879 847.11070801 -302.14051758 846.22141602 -301.69775391 845.30517578 C-291.50336627 824.39520013 -278.91227355 804.86262315 -264 787 C-263.55301758 786.4529541 -263.10603516 785.9059082 -262.64550781 785.34228516 C-251.87029292 772.15951873 -240.00268572 759.52094376 -226.5703125 749.015625 C-223.82436275 746.86226623 -221.20351529 744.59304245 -218.5625 742.3125 C-154.98658006 689.5093932 -70.72507258 666.59075701 8.88671875 651.24609375 C10.14057373 651.00431396 11.39442871 650.76253418 12.6862793 650.51342773 C15.54728601 650.07014349 18.11907962 649.95968126 21 650 C20.95877014 648.75225202 20.91754028 647.50450403 20.87506104 646.2189455 C19.89664012 616.60767213 18.91906772 586.99637089 17.94254184 557.38503497 C17.8223779 553.74130891 17.70220679 550.09758309 17.58203125 546.45385742 C17.55810633 545.72844958 17.53418141 545.00304175 17.5095315 544.25565185 C17.12199857 532.50610268 16.73388477 520.75657276 16.34555674 509.00704984 C15.94718357 496.95320347 15.54943364 484.89933665 15.15226364 472.84545058 C14.92913082 466.0740392 14.70570878 459.30263761 14.48156738 452.53125954 C14.27073925 446.161226 14.0606781 439.79116763 13.85121155 433.42108917 C13.77409769 431.08013408 13.69670082 428.73918828 13.6190033 426.39825249 C13.51314791 423.20769019 13.40830111 420.0170963 13.30371094 416.82649231 C13.25701956 415.43008797 13.25701956 415.43008797 13.20938492 414.00547343 C13.0791106 410.00185179 12.95967324 406.00644014 13 402 C11.90558594 401.88785156 10.81117188 401.77570313 9.68359375 401.66015625 C-33.55432601 396.20920166 -82.08126049 376.43427461 -116 349 C-116.55107422 348.55575684 -117.10214844 348.11151367 -117.66992188 347.65380859 C-157.16973274 315.56296448 -175.99574227 270.5194076 -182.80395508 220.95678711 C-183.00200249 218.98001248 -183 216.98667076 -183 215 C-179.33488308 216.32120802 -176.47368029 217.94409314 -173.34765625 220.2578125 C-124.79492027 254.92168643 -53.73185836 261.93914142 4.0715332 268.5769043 C7 269 7 269 9 270 C8.93764947 269.05714992 8.87529894 268.11429983 8.811059 267.14287853 C7.99069566 254.26731424 7.56193724 241.38560556 7.15209961 228.49145508 C7.07332501 226.0652099 6.99435527 223.63897105 6.91520691 221.21273804 C6.72447668 215.35031215 6.5358034 209.4878228 6.34812134 203.6252986 C6.12912579 196.78753279 5.90772091 189.9498456 5.6862324 183.11216017 C5.29118395 170.91394359 4.8982707 158.71565919 4.5065918 146.51733398 C4.12696331 134.69436672 3.74583473 122.87144907 3.36303711 111.04858398 C3.33940387 110.3186548 3.31577063 109.58872561 3.29142123 108.83667735 C3.26782743 108.10797404 3.24423363 107.37927073 3.21992487 106.6284855 C2.78301246 93.1340663 2.34737322 79.63960628 1.9124027 66.14512435 C1.78066974 62.05890622 1.64871181 57.97269543 1.51658671 53.88648997 C1.28768567 46.80729737 1.05975657 39.72807418 0.83291817 32.64881516 C0.75746244 30.29858909 0.68167876 27.94837353 0.60554504 25.59816933 C0.50179208 22.39354336 0.39923143 19.18888139 0.29698181 15.98420715 C0.26653634 15.05221601 0.23609088 14.12022486 0.20472282 13.15999156 C0.16384712 11.86719989 0.16384712 11.86719989 0.12214565 10.54829121 C0.09838562 9.80945739 0.0746256 9.07062358 0.05014557 8.30940086 C-0.00998388 5.54020287 0 2.76985072 0 0 Z M102 418 C100.2500747 466.27245703 98.59534994 514.54792502 97.01673615 562.82626778 C96.85819521 567.67274894 96.69865096 572.51919641 96.53869629 577.3656311 C96.32067717 583.97299584 96.10491722 590.58043186 95.89065361 597.18791962 C95.81090004 599.63884328 95.73050909 602.08974631 95.64943123 604.54062653 C95.5376232 607.92554583 95.42829605 611.31053681 95.31958008 614.69555664 C95.28688396 615.66919065 95.25418785 616.64282465 95.22050095 617.64596272 C95.00622123 624.43236192 94.9657556 631.21046086 95 638 C107.8098132 637.41637441 120.43330118 635.94836596 133.14453125 634.3046875 C135.28306573 634.03118366 137.42163154 633.75792474 139.56022644 633.4848938 C144.03955105 632.91172504 148.51834888 632.33463344 152.99682617 631.75488281 C157.49156575 631.1733798 161.98695398 630.59744167 166.4831543 630.02734375 C189.59731973 627.09625781 212.67545272 624.04170786 235.671875 620.28515625 C236.97079398 620.07347872 236.97079398 620.07347872 238.29595375 619.85752487 C283.53892117 612.44093037 336.00716141 603.65196577 372 573 C371.44584728 601.16103343 362.71248789 630.50949662 349 655 C348.36783145 656.19297374 347.73762551 657.38698953 347.109375 658.58203125 C319.64652765 709.83851523 264.39618675 735.26200468 211.25695801 751.33404541 C199.638497 754.76227377 187.8418813 757.4704645 176 760 C175.30704834 760.14848389 174.61409668 760.29696777 173.90014648 760.44995117 C152.56567828 764.99785341 131.08855879 768.52473948 109.52246094 771.77954102 C108.58501038 771.92119186 107.64755981 772.06284271 106.68170166 772.20878601 C104.91977243 772.47402278 103.15753928 772.73725127 101.3949585 772.99812317 C100.21622162 773.17476753 100.21622162 773.17476753 99.01367188 773.35498047 C98.33171753 773.45600067 97.64976318 773.55702087 96.94714355 773.66110229 C94.93353774 774.01156767 92.97617699 774.48064844 91 775 C90.23440184 779.14568317 89.8288597 783.14746224 89.68992615 787.35935974 C89.64648071 788.61858749 89.60303528 789.87781525 89.55827332 791.17520142 C89.51459663 792.55877426 89.47100513 793.94234979 89.42749023 795.32592773 C89.37841175 796.79374783 89.32899485 798.26155664 89.27926636 799.72935486 C89.14535641 803.7143062 89.01656379 807.69940761 88.8889606 811.68456531 C88.78122259 815.0347073 88.67097819 818.38476494 88.56074673 821.73482567 C88.29963278 829.67165296 88.04265987 837.60860693 87.78833008 845.5456543 C87.52849971 853.65237559 87.26219021 861.75886447 86.99244732 869.8652615 C86.75940159 876.87545609 86.53041628 883.8857758 86.30449444 890.89620358 C86.17030211 895.05940694 86.03479335 899.22255446 85.89541435 903.38558769 C85.19844435 924.26563347 84.84514423 945.10778114 85 966 C97.09746255 964.32125821 109.1937651 962.63438836 121.28881931 960.93837738 C126.91103794 960.15024363 132.533559 959.36445574 138.15698242 958.58496094 C162.00211652 955.27776721 185.80721736 951.82663384 209.5390625 947.77734375 C210.96530787 947.5346022 210.96530787 947.5346022 212.42036629 947.28695679 C288.45201496 934.28946737 366.79343833 914.34344674 428 865 C429.05597447 864.17055367 430.11196306 863.34112532 431.16796875 862.51171875 C447.01606355 849.65692517 462.09873978 834.58472038 474 818 C474.81463176 816.91273071 475.63106765 815.82681103 476.44921875 814.7421875 C486.80636636 800.83912991 495.6564934 785.73196685 503.03027344 770.05029297 C504.03296751 767.93029679 505.06735505 765.82743369 506.1015625 763.72265625 C513.33788094 748.66311655 518.43026582 732.8523891 523.3895874 716.93328857 C523.96053609 715.12498944 524.5548609 713.32411764 525.15087891 711.52392578 C530.38522282 695.62729834 530.19532785 684.79901949 525 669 C524.57631333 667.64513616 524.15524232 666.28945252 523.73632812 664.93310547 C513.84616926 632.98007855 501.70698726 601.32885342 482 574 C481.50274414 573.29810547 481.00548828 572.59621094 480.49316406 571.87304688 C473.74520724 562.36366698 466.83196332 553.27427243 458.74609375 544.86328125 C456.1696924 542.17693389 453.70391955 539.42288776 451.25 536.625 C448.11673701 533.13987325 444.904387 529.96143742 441.31640625 526.94921875 C439.54823542 525.46133132 437.81153478 523.9359647 436.08984375 522.39453125 C361.50639964 455.92847839 255.26318079 439.12736325 146.57863235 423.37872696 C144.81856078 423.12634031 143.05853819 422.87361178 141.29856491 422.62054062 C136.24519425 421.8939615 131.19116236 421.17235363 126.13595581 420.4586544 C124.5783453 420.23831143 123.02091667 420.01667842 121.46368408 419.79368019 C119.31089827 419.48595668 117.15742045 419.18364338 115.00366211 418.8828125 C113.79085068 418.71152832 112.57803925 418.54024414 111.32847595 418.36376953 C108.18608554 418.02033731 105.15777435 417.93200069 102 418 Z " fill="#000000" transform="translate(455,107)"/>
<path d="M0 0 C3.45679554 1.72839777 3.87429322 6.00214427 5.0625 9.5 C11.89506933 28.72454715 22.00785753 44.14758114 36 59 C36.59941406 59.66386719 37.19882812 60.32773438 37.81640625 61.01171875 C53.66794269 77.89035258 77.0967906 90.12501787 99 97 C96.38162516 100.1940459 93.45361636 101.11392255 89.625 102.5 C69.97957401 109.9997327 53.27090284 120.58977607 38 135 C36.78376953 136.10214844 36.78376953 136.10214844 35.54296875 137.2265625 C20.66830606 151.23451256 10.02426763 170.38071942 3.8503418 189.73217773 C3.28058459 191.50393476 2.64604674 193.2546147 2 195 C1.34 195.33 0.68 195.66 0 196 C-0.34611328 195.1181604 -0.34611328 195.1181604 -0.69921875 194.21850586 C-9.98888002 170.68454431 -20.39450398 150.69791085 -39 133 C-39.65871094 132.35804688 -40.31742188 131.71609375 -40.99609375 131.0546875 C-55.58586557 117.30340831 -73.12820574 108.43398162 -91.68115234 101.25708008 C-96.89660696 99.20678609 -96.89660696 99.20678609 -98 97 C-97.4831665 96.8047876 -96.96633301 96.6095752 -96.43383789 96.40844727 C-74.06864774 87.89154975 -54.3976175 77.65539833 -37 61 C-35.89785156 59.99259766 -35.89785156 59.99259766 -34.7734375 58.96484375 C-19.02730062 44.0811278 -8.67073018 24.58055702 -2.05859375 4.1484375 C-1 1 -1 1 0 0 Z " fill="#000000" transform="translate(681,1593)"/>
<path d="M0 0 C1.77488727 2.6623309 2.76452627 4.99186817 3.80004883 7.98730469 C10.75777348 27.99409996 21.50897636 44.61802735 36 60 C36.59941406 60.66386719 37.19882812 61.32773437 37.81640625 62.01171875 C53.77121473 79.00031611 75.54492672 88.98234214 97 97 C97 97.99 97 98.98 97 100 C95.82566406 100.47308594 94.65132812 100.94617188 93.44140625 101.43359375 C71.35405846 110.45157335 52.06374388 121.17424418 35 138 C34.14792969 138.83917969 33.29585937 139.67835938 32.41796875 140.54296875 C17.21459057 156.36884745 7.80196057 176.36520616 1 197 C-2.45697717 195.27151142 -2.87376139 190.99778461 -4.0625 187.5 C-11.90596536 165.51387026 -24.79613503 144.89953304 -43 130 C-44.38832031 128.8553125 -44.38832031 128.8553125 -45.8046875 127.6875 C-59.8511031 116.35706864 -75.2064137 108.62658415 -91.88793945 101.89453125 C-93.97369802 101.01113981 -95.98573855 100.03491266 -98 99 C-95.98625474 96.98625474 -94.83593084 96.39353568 -92.24609375 95.37109375 C-91.48272705 95.06333008 -90.71936035 94.75556641 -89.93286133 94.43847656 C-89.10939209 94.1081543 -88.28592285 93.77783203 -87.4375 93.4375 C-71.45672284 86.82434735 -57.39036174 79.00025416 -44 68 C-43.44441406 67.54367187 -42.88882813 67.08734375 -42.31640625 66.6171875 C-22.87534484 50.36084764 -9.11591743 27.29103511 -1.7265625 3.1953125 C-1 1 -1 1 0 0 Z " fill="#000000" transform="translate(305,553)"/>
</svg>
